<svg xmlns="http://www.w3.org/2000/svg" viewBox="0 0 512 512" role="img" aria-label="AI Talk Talk 앱 아이콘">
  <defs>
    <linearGradient id="bg" x1="88" y1="32" x2="424" y2="482" gradientUnits="userSpaceOnUse">
      <stop offset="0" stop-color="#fff8d0"/>
      <stop offset=".55" stop-color="#ffe680"/>
      <stop offset="1" stop-color="#ffc44f"/>
    </linearGradient>
    <linearGradient id="bot" x1="151" y1="137" x2="362" y2="363" gradientUnits="userSpaceOnUse">
      <stop offset="0" stop-color="#ffe16f"/>
      <stop offset=".52" stop-color="#ffc43f"/>
      <stop offset="1" stop-color="#f3a928"/>
    </linearGradient>
    <radialGradient id="shine" cx="190" cy="155" r="170" gradientUnits="userSpaceOnUse">
      <stop offset="0" stop-color="#fff7c5" stop-opacity=".95"/>
      <stop offset=".65" stop-color="#fff7c5" stop-opacity="0"/>
    </radialGradient>
    <filter id="shadow" x="-30%" y="-30%" width="160%" height="170%" color-interpolation-filters="sRGB">
      <feDropShadow dx="0" dy="22" stdDeviation="20" flood-color="#ad741e" flood-opacity=".25"/>
    </filter>
  </defs>
  <rect width="512" height="512" rx="116" fill="url(#bg)"/>
  <circle cx="116" cy="104" r="38" fill="#fff9d7" opacity=".85"/>
  <circle cx="428" cy="402" r="58" fill="#fff2bd" opacity=".45"/>
  <path d="M126 342c-37 0-67 27-67 60 0 18 9 34 24 45l-9 42 47-27h139c37 0 67-27 67-60s-30-60-67-60H126Z" fill="#ffffff" opacity=".86"/>
  <g filter="url(#shadow)">
    <rect x="132" y="126" width="248" height="214" rx="82" fill="url(#bot)"/>
    <rect x="166" y="155" width="180" height="132" rx="58" fill="url(#shine)" opacity=".75"/>
    <circle cx="213" cy="232" r="18" fill="#20233e"/>
    <circle cx="299" cy="232" r="18" fill="#20233e"/>
    <rect x="220" y="279" width="72" height="14" rx="7" fill="#20233e" opacity=".74"/>
    <rect x="107" y="206" width="42" height="92" rx="21" fill="#ffd86e"/>
    <rect x="363" y="206" width="42" height="92" rx="21" fill="#f7b739"/>
  </g>
  <path d="M365 122c18 0 33 14 33 32s-15 32-33 32h-26l-36 29 12-29h-7c-18 0-33-14-33-32s15-32 33-32h57Z" fill="#25c3a7"/>
  <circle cx="322" cy="154" r="7" fill="#fff"/>
  <circle cx="349" cy="154" r="7" fill="#fff"/>
  <circle cx="376" cy="154" r="7" fill="#fff"/>
</svg>
