<svg xmlns="http://www.w3.org/2000/svg" viewBox="0 0 960 260" role="img" aria-label="AI 톡톡 마스코트 후보">
  <rect width="960" height="260" rx="28" fill="#fffdf8"/>
  <text x="40" y="45" font-size="26" font-weight="700" font-family="Arial, sans-serif" fill="#20233e">채팅방 상단 마스코트 후보</text>
  <g transform="translate(70 70)"><use href="#m1"/><text x="80" y="155" text-anchor="middle" font-size="16" font-weight="700" font-family="Arial, sans-serif" fill="#20233e">A 기본 적용</text></g>
  <g transform="translate(300 70)"><use href="#m2"/><text x="80" y="155" text-anchor="middle" font-size="16" font-weight="700" font-family="Arial, sans-serif" fill="#20233e">B 말풍선 큼</text></g>
  <g transform="translate(530 70)"><use href="#m3"/><text x="80" y="155" text-anchor="middle" font-size="16" font-weight="700" font-family="Arial, sans-serif" fill="#20233e">C 미니봇</text></g>
  <g transform="translate(760 70)"><use href="#m4"/><text x="80" y="155" text-anchor="middle" font-size="16" font-weight="700" font-family="Arial, sans-serif" fill="#20233e">D 반짝</text></g>
  <defs>
    <linearGradient id="b" x1="0" x2="1" y1="0" y2="1"><stop stop-color="#ffe06c"/><stop offset=".55" stop-color="#ffc238"/><stop offset="1" stop-color="#f0aa24"/></linearGradient>
    <linearGradient id="t" x1="0" x2="1"><stop stop-color="#38d9bd"/><stop offset="1" stop-color="#16a98f"/></linearGradient>
    <filter id="d"><feDropShadow dx="0" dy="8" stdDeviation="7" flood-color="#9b6518" flood-opacity=".16"/></filter>
    <g id="mini"><rect x="42" y="48" width="76" height="54" rx="26" fill="url(#b)" filter="url(#d)"/><circle cx="72" cy="72" r="5" fill="#20233e"/><circle cx="95" cy="72" r="5" fill="#20233e"/><rect x="77" y="88" width="18" height="4" rx="2" fill="#20233e" opacity=".65"/></g>
    <g id="m1"><ellipse cx="80" cy="125" rx="62" ry="9" fill="#e8c59d"/><use href="#mini"/><path d="M116 30h34c15 0 27 10 27 23s-12 23-27 23h-12l-22 17 7-17h-7c-15 0-27-10-27-23s12-23 27-23Z" fill="url(#t)"/><circle cx="126" cy="53" r="4" fill="#fff"/><circle cx="145" cy="53" r="4" fill="#fff"/><circle cx="164" cy="53" r="4" fill="#fff"/></g>
    <g id="m2"><ellipse cx="80" cy="125" rx="62" ry="9" fill="#e8c59d"/><use href="#mini"/><path d="M28 24h74c18 0 32 12 32 27s-14 27-32 27H80l-30 23 9-23H28c-18 0-32-12-32-27s14-27 32-27Z" fill="url(#t)"/></g>
    <g id="m3"><ellipse cx="80" cy="125" rx="46" ry="8" fill="#e8c59d"/><g transform="scale(.8) translate(22 30)"><use href="#mini"/></g><circle cx="121" cy="41" r="15" fill="url(#t)"/><circle cx="121" cy="41" r="4" fill="#fff"/></g>
    <g id="m4"><ellipse cx="80" cy="125" rx="62" ry="9" fill="#e8c59d"/><use href="#mini"/><path d="M133 20l6 13 13 6-13 6-6 13-6-13-13-6 13-6 6-13Z" fill="#f8d86d"/><path d="M30 34l4 9 9 4-9 4-4 9-4-9-9-4 9-4 4-9Z" fill="#f8d86d"/></g>
  </defs>
</svg>
