<svg xmlns="http://www.w3.org/2000/svg" viewBox="0 0 960 280" role="img" aria-label="AI Talk Talk 아이콘 후보">
  <rect width="960" height="280" rx="28" fill="#fffdf8"/>
  <text x="40" y="48" font-size="26" font-weight="700" font-family="Arial, sans-serif" fill="#20233e">AI Talk Talk 아이콘 후보</text>
  <g transform="translate(54 76)">
    <use href="#iconA"/>
    <text x="64" y="162" text-anchor="middle" font-size="16" font-weight="700" font-family="Arial, sans-serif" fill="#20233e">A 기본</text>
  </g>
  <g transform="translate(284 76)">
    <use href="#iconB"/>
    <text x="64" y="162" text-anchor="middle" font-size="16" font-weight="700" font-family="Arial, sans-serif" fill="#20233e">B 말풍선</text>
  </g>
  <g transform="translate(514 76)">
    <use href="#iconC"/>
    <text x="64" y="162" text-anchor="middle" font-size="16" font-weight="700" font-family="Arial, sans-serif" fill="#20233e">C 얼굴 강조</text>
  </g>
  <g transform="translate(744 76)">
    <use href="#iconD"/>
    <text x="64" y="162" text-anchor="middle" font-size="16" font-weight="700" font-family="Arial, sans-serif" fill="#20233e">D 톡톡</text>
  </g>
  <defs>
    <linearGradient id="y" x1="0" x2="1" y1="0" y2="1"><stop stop-color="#fff6bd"/><stop offset=".55" stop-color="#ffd658"/><stop offset="1" stop-color="#f0a72b"/></linearGradient>
    <linearGradient id="g" x1="0" x2="1"><stop stop-color="#3ce0bc"/><stop offset="1" stop-color="#13aa93"/></linearGradient>
    <filter id="s"><feDropShadow dx="0" dy="10" stdDeviation="8" flood-color="#9b6518" flood-opacity=".18"/></filter>
    <g id="face"><circle cx="48" cy="56" r="6" fill="#20233e"/><circle cx="80" cy="56" r="6" fill="#20233e"/><rect x="53" y="76" width="22" height="5" rx="3" fill="#20233e" opacity=".7"/></g>
    <g id="iconA"><rect width="128" height="128" rx="30" fill="url(#y)"/><rect x="30" y="34" width="68" height="58" rx="26" fill="#ffc638" filter="url(#s)"/><use href="#face"/><path d="M88 20h22c11 0 20 8 20 18s-9 18-20 18h-7l-16 13 5-13h-4c-11 0-20-8-20-18s9-18 20-18Z" fill="url(#g)"/></g>
    <g id="iconB"><rect width="128" height="128" rx="30" fill="#fff4bd"/><path d="M28 45c0-22 18-40 40-40h18c22 0 40 18 40 40v9c0 22-18 40-40 40H64l-29 24 8-28c-9-7-15-18-15-31V45Z" fill="url(#y)" filter="url(#s)"/><use href="#face"/></g>
    <g id="iconC"><rect width="128" height="128" rx="30" fill="#ffdc61"/><rect x="21" y="30" width="86" height="70" rx="33" fill="url(#y)" filter="url(#s)"/><use href="#face"/><circle cx="101" cy="30" r="12" fill="#24c4a7"/><circle cx="109" cy="42" r="5" fill="#fff"/></g>
    <g id="iconD"><rect width="128" height="128" rx="30" fill="#ffe887"/><rect x="22" y="42" width="84" height="58" rx="28" fill="url(#y)" filter="url(#s)"/><use href="#face"/><text x="64" y="27" text-anchor="middle" font-size="22" font-weight="800" font-family="Arial, sans-serif" fill="#20233e">톡톡</text></g>
  </defs>
</svg>
