<svg xmlns="http://www.w3.org/2000/svg" viewBox="0 0 220 150" role="img" aria-label="AI 톡톡 노란 봇">
  <defs>
    <linearGradient id="body" x1="78" y1="28" x2="150" y2="106" gradientUnits="userSpaceOnUse">
      <stop offset="0" stop-color="#ffe06c"/>
      <stop offset=".55" stop-color="#ffc238"/>
      <stop offset="1" stop-color="#f0aa24"/>
    </linearGradient>
    <filter id="soft" x="-30%" y="-30%" width="160%" height="170%">
      <feDropShadow dx="0" dy="10" stdDeviation="10" flood-color="#a46b1c" flood-opacity=".16"/>
    </filter>
  </defs>
  <ellipse cx="110" cy="126" rx="83" ry="12" fill="#e8c59d" opacity=".8"/>
  <g filter="url(#soft)">
    <rect x="62" y="42" width="96" height="66" rx="31" fill="url(#body)"/>
    <circle cx="92" cy="73" r="6.5" fill="#20233e"/>
    <circle cx="128" cy="73" r="6.5" fill="#20233e"/>
    <rect x="97" y="91" width="29" height="6" rx="3" fill="#20233e" opacity=".66"/>
    <rect x="46" y="64" width="20" height="34" rx="10" fill="#ffd568"/>
    <rect x="154" y="64" width="20" height="34" rx="10" fill="#f3b42e"/>
  </g>
  <path d="M150 20c16 0 29 11 29 25s-13 25-29 25h-9l-22 18 7-18h-2c-16 0-29-11-29-25s13-25 29-25h26Z" fill="#25c3a7"/>
  <circle cx="132" cy="45" r="4.5" fill="#fff"/>
  <circle cx="150" cy="45" r="4.5" fill="#fff"/>
  <circle cx="168" cy="45" r="4.5" fill="#fff"/>
  <path d="M42 34l6 12 12 6-12 6-6 12-6-12-12-6 12-6 6-12Z" fill="#f8d86d"/>
  <path d="M184 82c10 1 18 8 18 17 0 10-9 18-20 18-7 0-13-3-17-8" fill="none" stroke="#8cd76f" stroke-width="8" stroke-linecap="round"/>
</svg>
