<svg width="420" height="520" viewBox="0 0 420 520" fill="none" xmlns="http://www.w3.org/2000/svg">
  <defs>
    <filter id="softShadow" x="-30%" y="-30%" width="160%" height="170%" color-interpolation-filters="sRGB">
      <feDropShadow dx="0" dy="14" stdDeviation="14" flood-color="#5A3C16" flood-opacity="0.12"/>
    </filter>
    <filter id="textDepth" x="-8%" y="-8%" width="116%" height="126%" color-interpolation-filters="sRGB">
      <feDropShadow dx="0" dy="2" stdDeviation="1.2" flood-color="#2A201A" flood-opacity="0.18"/>
    </filter>
    <linearGradient id="aiGradient" x1="36" y1="196" x2="160" y2="318" gradientUnits="userSpaceOnUse">
      <stop offset="0" stop-color="#B38CFF"/>
      <stop offset="0.52" stop-color="#A880F6"/>
      <stop offset="1" stop-color="#8E68ED"/>
    </linearGradient>
    <linearGradient id="yellowFace" x1="78" y1="24" x2="204" y2="154" gradientUnits="userSpaceOnUse">
      <stop offset="0" stop-color="#FFE879"/>
      <stop offset="1" stop-color="#FFD02D"/>
    </linearGradient>
    <linearGradient id="bubbleFill" x1="28" y1="385" x2="246" y2="502" gradientUnits="userSpaceOnUse">
      <stop offset="0" stop-color="#FFF7C8"/>
      <stop offset="1" stop-color="#FFECA0"/>
    </linearGradient>
  </defs>

  <g filter="url(#softShadow)">
    <path d="M93 142C54 139 25 111 24 75C23 34 57 5 103 4H138C188 4 221 35 221 79C221 119 190 147 146 148H112L83 171C75 177 64 170 68 160L75 143L93 142Z" fill="url(#yellowFace)"/>
    <circle cx="92" cy="79" r="9" fill="#3B312D"/>
    <circle cx="151" cy="79" r="9" fill="#3B312D"/>
    <circle cx="68" cy="104" r="10" fill="#FF9CA3" opacity="0.8"/>
    <circle cx="176" cy="104" r="10" fill="#FF9CA3" opacity="0.8"/>
    <path d="M104 103C112 115 130 115 138 103" stroke="#3B312D" stroke-width="7" stroke-linecap="round"/>
    <rect x="49" y="9" width="19" height="56" rx="9.5" transform="rotate(-36 49 9)" fill="#F8C536"/>
    <rect x="104" y="-6" width="19" height="50" rx="9.5" transform="rotate(-7 104 -6)" fill="#F8C536"/>
    <rect x="-5" y="55" width="18" height="48" rx="9" transform="rotate(-63 -5 55)" fill="#F8C536"/>
  </g>

  <g filter="url(#textDepth)">
    <text x="18" y="303" fill="url(#aiGradient)"
      font-family="Pretendard, SUIT, Apple SD Gothic Neo, Noto Sans KR, sans-serif"
      font-size="120" font-weight="900" letter-spacing="-9">AI</text>
    <text x="158" y="303" fill="#2F2648"
      font-family="Pretendard, SUIT, Apple SD Gothic Neo, Noto Sans KR, sans-serif"
      font-size="120" font-weight="900" letter-spacing="-12">톡톡</text>
    <text x="25" y="373" fill="#2F2648"
      font-family="Pretendard, SUIT, Apple SD Gothic Neo, Noto Sans KR, sans-serif"
      font-size="42" font-weight="800" letter-spacing="-3.4">AI 3-친구 톡</text>
  </g>

  <g filter="url(#softShadow)">
    <path d="M48 411C48 389 66 371 88 371H229C251 371 269 389 269 411V459C269 481 251 499 229 499H205L207 518L181 499H88C66 499 48 481 48 459V411Z" fill="url(#bubbleFill)"/>
    <text x="83" y="431" fill="#2F2648"
      font-family="Pretendard, SUIT, Apple SD Gothic Neo, Noto Sans KR, sans-serif"
      font-size="34" font-weight="700" letter-spacing="-2.1">궁금할 땐,</text>
    <text x="83" y="478" fill="#2F2648"
      font-family="Pretendard, SUIT, Apple SD Gothic Neo, Noto Sans KR, sans-serif"
      font-size="34" font-weight="700" letter-spacing="-2.1">AI와 톡!</text>
  </g>
</svg>
